<?xml version="1.0" encoding="utf-8"?>
<!-- Generator: Adobe Illustrator 23.0.3, SVG Export Plug-In . SVG Version: 6.00 Build 0)  -->
<svg version="1.1" id="Layer_1" focusable="false" xmlns="http://www.w3.org/2000/svg" xmlns:xlink="http://www.w3.org/1999/xlink"
	 x="0px" y="0px" viewBox="0 0 448 512" style="enable-background:new 0 0 448 512;" xml:space="preserve">
<style type="text/css">
	.st0{fill:#D1B750;}
</style>
<path class="st0" d="M0,224h192V32H0V224z M64,96h64v64H64V96z M256,32v192h192V32H256z M384,160h-64V96h64V160z M0,480h192V288H0
	V480z M64,352h64v64H64V352z M416,288h32v128h-96v-32h-32v96h-64V288h96v32h64V288z M416,448h32v32h-32V448z M352,448h32v32h-32V448
	z"/>
</svg>
